<?xml version="1.0" encoding="utf-8"?>
<!-- Generator: Adobe Illustrator 13.0.2, SVG Export Plug-In . SVG Version: 6.00 Build 14948)  -->
<!DOCTYPE svg PUBLIC "-//W3C//DTD SVG 1.1//EN" "http://www.w3.org/Graphics/SVG/1.1/DTD/svg11.dtd">
<svg version="1.1" id="Layer_1" xmlns="http://www.w3.org/2000/svg" xmlns:xlink="http://www.w3.org/1999/xlink" x="0px" y="0px"
	 width="80.333px" height="127.984px" viewBox="0 0 80.333 127.984" enable-background="new 0 0 80.333 127.984"
	 xml:space="preserve">
<g>
	<path fill-rule="evenodd" clip-rule="evenodd" fill="#151717" d="M74.32,5c-3.346,1.499,0.102,6.773,0,1c1.357,0.31,0.83,2.504,1,4
		C69.913,10.696,69.187,5.049,74.32,5z"/>
	<path fill-rule="evenodd" clip-rule="evenodd" fill="#30FFCF" d="M9.329,32.996c-2.234-4.273,3.458-14.5,5.999-13.999
		C13.997,24.333,12.272,29.273,9.329,32.996z"/>
	<path fill-rule="evenodd" clip-rule="evenodd" fill="#536565" d="M17.328,17.998c1.615-0.282,1.721,0.945,3,1
		c-3.688,5.644-2.327,16.338-10.999,16.998C13.421,31.422,15.911,25.247,17.328,17.998z"/>
	<path fill-rule="evenodd" clip-rule="evenodd" fill="#151717" d="M69.321,26.997c-1.605,0.881-8.881-6.393-7.999-7.999
		C64.408,21.244,67.075,23.911,69.321,26.997z"/>
	<path fill-rule="evenodd" clip-rule="evenodd" fill="#30FFCF" d="M41.325,51.994c-18.903-0.466-12.627-31.688,7-22.997
		c0.903,1.763,2.236,3.096,3.999,4c0.153,3.18,2.268,4.398,2,7.999C51.684,46.354,46.824,49.494,41.325,51.994z"/>
	<path fill-rule="evenodd" clip-rule="evenodd" fill="#536565" d="M69.321,29.996c2.569,0.097,1.43,3.903,4,4
		C63.819,47.492,54.58,61.249,34.326,63.992c4.721-1.945,9.627-3.705,12.999-7c-0.223-1.428-4.977,0.929-7.999,0
		c-0.224-0.776-0.027-1.972-1-2c6.561-1.439,13.306-2.692,15.998-7.999C60.443,46.437,65.97,36.652,69.321,29.996z"/>
	<path fill-rule="evenodd" clip-rule="evenodd" fill="#536565" d="M20.328,69.991c-0.013,1.987-2.728,1.271-2,4
		C14.114,73.396,17.447,66.338,20.328,69.991z"/>
	<path fill-rule="evenodd" clip-rule="evenodd" fill="#536565" d="M39.325,71.991c0.132,2.465,0.151,4.817-1,5.999
		c-1.333,0-2.667,0-4,0C31.415,74.334,35.268,68.987,39.325,71.991z"/>
	<path fill-rule="evenodd" clip-rule="evenodd" fill="#151717" d="M24.327,88.989c-3.533-0.468-5.474-2.526-7.999-4
		c0.056-3.276,2.844-3.822,2-7.999c4.438-1.464,5.868,0.008,10.999,0c0.168,1.165,1.581,1.086,3,1c0.801,5.134-1.072,7.594-2,10.999
		C28.327,88.989,26.327,88.989,24.327,88.989z M18.328,84.989c3.601,0.731,5.051,3.615,9.999,3c1.442-2.225,2.511-4.822,2-8.999
		c-3.506-0.493-6.508-1.491-10.999-1C20.129,81.459,17.838,81.834,18.328,84.989z"/>
	<path fill-rule="evenodd" clip-rule="evenodd" fill="#536565" d="M19.328,77.99c4.49-0.491,7.492,0.507,10.999,1
		c0.511,4.177-0.558,6.774-2,8.999c-4.948,0.615-6.398-2.269-9.999-3C17.838,81.834,20.129,81.459,19.328,77.99z"/>
	<path fill-rule="evenodd" clip-rule="evenodd" fill="#151717" d="M10.329,112.986c2.336-3.997,2.783-9.883,6-12.999
		c0.627,3.039-1.28,8.612,1,9.999c0,0.666,0,1.333,0,2c0.914,1.752,0.344,4.988,2,5.999c-1.311,3.861-7.479,3.396-9.999,1
		c-0.827-2.826,1.409-2.591,1-5C10.329,113.652,10.329,113.319,10.329,112.986z M13.329,108.986c-1.081,2.919-2.239,5.761-2,9.999
		c1.333,0,2.667,0,4,0c0.333,0,0.667,0,1,0C16.904,117.531,15.304,99.112,13.329,108.986z"/>
	<path fill-rule="evenodd" clip-rule="evenodd" fill="#151717" d="M27.327,110.986c2.147-3.186,2.769-7.896,5-10.999
		c2.352,1.981,1.704,6.962,3,9.999c0.735,3.931,2.085,7.247,3,10.999c-1.889,2.878-8.747,2.328-11.999,0.999
		C26.202,117.86,28.065,115.724,27.327,110.986z M33.326,121.984c5.747-2.154-0.014-14.08-2-17.997c0.043,1.376-0.471,2.195-1,2.999
		C29.719,110.853,24.193,123.225,33.326,121.984z"/>
	<path fill-rule="evenodd" clip-rule="evenodd" fill="#536565" d="M15.328,118.985c-1.83-2.17,0.188-8.188-2-9.999
		c1.975-9.874,3.575,8.545,3,9.999C15.995,118.985,15.662,118.985,15.328,118.985z"/>
	<path fill-rule="evenodd" clip-rule="evenodd" fill="#CDCDCD" d="M56.323,55.993c4.578-3.421,8.099-7.899,11.998-11.999
		C65.35,49.022,61.722,53.393,56.323,55.993z"/>
	<path fill-rule="evenodd" clip-rule="evenodd" fill="none" d="M104.317,0c0,42.661,0,85.322,0,127.984
		c-42.662,0-85.323,0-127.984,0C-23,85.655-25,40.662-22.667,0C19.661,0,61.989,0,104.317,0z M69.321,26.997
		c-2.246-3.086-4.913-5.752-7.999-7.999c-0.211-1.122-1.109-1.557-2-2c-0.778-0.221-1.162-0.837-0.999-2
		c3.301-3.031,8.241-4.423,11.998-6.999c-7.966-0.633-11.803,2.862-16.998,5c-1.479-0.521-2.52-1.479-3.999-2
		c-0.057-0.61-0.149-1.184-1-1C42.615,7.708,36.904,5.42,30.326,4c-3.307,4.358-5.655,9.676-8.999,13.998
		c-2.09-0.576-2.854-2.479-5.999-2C9.553,20.222,7.002,27.67,6.329,36.996c3.16-0.16,6.035-0.036,7,2c-1.927,1.851-0.79,1.832-4,1
		c1.07,5.262,2.634,10.031,4.999,13.998c1.848,2.485,3.023,5.643,6,6.999c1.812,2.52,6.568,2.097,7.999,5
		c-1.165,0.168-1.086,1.58-1,2.999c-4.738,0.738-6.875-1.124-10.999-1c0.39,8.087-1.927,11.489-2,22.997
		c7.337,7.985,17.852,3.835,21.998-3.999c0,3.666,0,7.332,0,10.998c3.466-0.533,9.484,1.485,9.999-1.999
		c-3.687-0.188-1.947-3.263-3-4c0.47,2.251-5.425,3.084-5.999,1c0.29-7.709,1.935-14.063,4-19.997c-0.779-0.221-1.162-0.838-1-2
		c-3.418-2.484-7.163,1.303-9.999-1c1.393-1.273,0.435-4.897,3-5c11.538,0.872,16.282-5.049,22.998-8.999
		c5.398-2.6,9.026-6.971,11.998-11.999c3.557-4.089,8.744-9.722,3-14.998C71.109,27.875,70.211,27.44,69.321,26.997z M75.32,9.999
		c-0.17-1.496,0.357-3.69-1-4c0.102,5.773-3.346,0.5,0-1C69.187,5.049,69.913,10.696,75.32,9.999z M16.328,99.987
		c-3.217,3.116-3.663,9.002-6,12.999c-3.966,1.366-9.305,1.359-8.999,6.999c2.144,2.855,5.331,4.668,9.999,4.999
		c8.623,1.043,16.75,2.581,26.997,2c9.895-0.771,20.341-0.99,23.997-7.999c-2.999-7-12.743-7.254-21.997-7.999
		c-2.319,0.318-3.839-0.161-5-1c-1.296-3.037-0.648-8.018-3-9.999c-2.23,3.103-2.852,7.813-5,10.999
		c-4.449-0.783-6.001,1.331-9.999,1c0-0.667,0-1.334,0-2C16.701,106.947,18.608,101.374,16.328,99.987z"/>
	<path fill-rule="evenodd" clip-rule="evenodd" fill="#151717" d="M14.328,53.993c-2.365-3.967-3.929-8.736-4.999-13.998
		c3.209,0.832,2.073,0.851,4-1c-0.965-2.035-3.84-2.16-7-2c0.673-9.326,3.224-16.774,8.999-20.998c3.146-0.479,3.909,1.424,5.999,2
		c3.344-4.322,5.692-9.64,8.999-13.998c6.578,1.421,12.289,3.709,17.998,5.999c-4.796,2.102-9.562-4.417-15.998-4
		c-9.857,8.141-13.658,22.338-18.998,34.996c4.018,5.647,11.196,8.135,15.998,12.998c6.162-5.985-4.022-9.561-3-18.998
		c1.377-12.7,19.008-11.603,21.998-5.999c-19.627-8.691-25.902,22.531-7,22.997c8.234,0.235,11.385-4.613,12.999-10.999
		c0.268-3.601-1.847-4.819-2-7.999c-0.56-1.44-1.56-2.44-2.999-3c5.435-2.31,7.663,11.042,4.999,16.998
		c-2.692,5.307-9.438,6.56-15.998,7.999c0.973,0.027,0.776,1.224,1,2c-1.23,0.437-2.054,1.28-2,3
		c-10.364-3.967-16.415-12.249-25.997-16.998C11.065,47.296,16.442,51.161,14.328,53.993z M15.328,18.998
		c-2.542-0.502-8.233,9.725-5.999,13.999C12.272,29.273,13.997,24.333,15.328,18.998z M9.329,35.996
		c8.672-0.66,7.31-11.354,10.999-16.998c-1.278-0.055-1.385-1.282-3-1C15.911,25.247,13.421,31.422,9.329,35.996z M29.326,33.996
		c0.388-3.945,4.065-4.601,6-6.999C31.704,27.085,27.105,31.383,29.326,33.996z M31.326,54.993c3.958-1.292,2.042,3.291,5.999,2
		C37.104,54.282,32.185,51.165,31.326,54.993z"/>
	<path fill-rule="evenodd" clip-rule="evenodd" fill="#536565" d="M59.322,18.998c1.454-0.443-0.102-0.878,0-2
		c0.891,0.443,1.789,0.878,2,2c-0.882,1.606,6.394,8.88,7.999,7.999c0.89,0.443,1.788,0.878,2,2c-0.891-0.615-1.788-1.208-2,0
		C65.569,26.082,62.237,22.749,59.322,18.998z"/>
	<path fill-rule="evenodd" clip-rule="evenodd" fill="#151717" d="M49.324,10.999c1.479,0.521,2.52,1.479,3.999,2
		c5.195-2.138,9.032-5.633,16.998-5c-3.757,2.576-8.697,3.968-11.998,6.999c-0.163,1.163,0.221,1.779,0.999,2
		c-0.102,1.122,1.454,1.557,0,2c-3.396-2.604-6.761-5.237-10.998-6.999C48.141,11.148,48.714,11.055,49.324,10.999z M55.323,14.998
		c2.717-0.616,4.683-1.983,5.999-4C58.869,11.878,55.557,11.898,55.323,14.998z"/>
	<path fill-rule="evenodd" clip-rule="evenodd" fill="#536565" d="M61.322,10.999c-1.316,2.017-3.282,3.383-5.999,4
		C55.557,11.898,58.869,11.878,61.322,10.999z"/>
	<path fill-rule="evenodd" clip-rule="evenodd" fill="#536565" d="M54.323,40.995c-1.613,6.386-4.765,11.233-12.999,10.999
		C46.824,49.494,51.684,46.354,54.323,40.995z"/>
	<path fill-rule="evenodd" clip-rule="evenodd" fill="#536565" d="M35.326,26.997c-1.935,2.398-5.612,3.054-6,6.999
		C27.105,31.383,31.704,27.085,35.326,26.997z"/>
	<path fill-rule="evenodd" clip-rule="evenodd" fill="#9E8E91" d="M39.325,56.993c3.022,0.929,7.776-1.428,7.999,0
		c-3.371,3.295-8.278,5.054-12.999,7c-6.939,0.606-10.529-2.137-13.998-5c-1.454,0.443,0.102,0.878,0,2
		c-2.976-1.356-4.152-4.514-6-6.999c2.114-2.832-3.263-6.697-3-10.999c9.582,4.75,15.632,13.031,25.997,16.998
		C37.271,58.272,38.095,57.429,39.325,56.993z"/>
	<path fill-rule="evenodd" clip-rule="evenodd" fill="#9E8E91" d="M37.325,56.993c-3.958,1.292-2.042-3.291-5.999-2
		C32.185,51.165,37.104,54.282,37.325,56.993z"/>
	<path fill-rule="evenodd" clip-rule="evenodd" fill="#536565" d="M31.326,75.99c0.56,1.44,1.56,2.44,3,3
		c0.599,8.746-4.375,16.754-10.999,14.998c2.085-1.457,4.405-3.292,1-4.999c2,0,4,0,5.999,0c0.928-3.405,2.801-5.865,2-10.999
		c-1.419,0.086-2.832,0.165-3-1C30.136,76.801,30.323,75.987,31.326,75.99z"/>
	<path fill-rule="evenodd" clip-rule="evenodd" fill="#9E8E91" d="M29.326,76.99c-5.13,0.008-6.56-1.464-10.999,0
		c0.844,4.177-1.943,4.723-2,7.999c2.525,1.474,4.466,3.532,7.999,4c3.405,1.707,1.085,3.542-1,4.999
		c-3.532-0.467-5.474-2.525-7.999-4c-0.833-9.165,2.785-13.879,5.999-18.997c3.395,0.271,8.107-0.774,9.999,1
		c0,1.333,0,2.666,0,3.999C30.323,75.987,30.136,76.801,29.326,76.99z"/>
	<path fill-rule="evenodd" clip-rule="evenodd" fill="#536565" d="M30.326,106.986c0.529-0.804,1.043-1.623,1-2.999
		c1.985,3.917,7.747,15.843,2,17.997C31.674,117.638,32.285,111.027,30.326,106.986z"/>
	<path fill-rule="evenodd" clip-rule="evenodd" fill="#9E8E91" d="M48.324,28.997c-2.989-5.604-20.621-6.701-21.998,5.999
		c-1.023,9.437,9.161,13.012,3,18.998c-4.802-4.863-11.98-7.351-15.998-12.998c5.34-12.658,9.141-26.855,18.998-34.996
		c6.437-0.417,11.202,6.102,15.998,4c0.851-0.184,0.943,0.39,1,1c-0.61,0.057-1.184,0.149-1,1c4.237,1.762,7.603,4.396,10.998,6.999
		c2.915,3.751,6.247,7.084,9.999,9.999c0,0.333,0,0.667,0,1c-3.352,6.656-8.878,16.441-14.998,16.998
		c2.664-5.956,0.436-19.308-4.999-16.998c1.439,0.56,2.439,1.56,2.999,3C50.561,32.092,49.228,30.759,48.324,28.997z"/>
	<path fill-rule="evenodd" clip-rule="evenodd" fill="#151717" d="M56.323,55.993c-6.716,3.95-11.46,9.87-22.998,8.999
		c-2.564,0.102-1.606,3.726-3,5c2.836,2.303,6.581-1.484,9.999,1c-0.163,1.162,0.221,1.779,1,2c-2.064,5.934-3.709,12.288-4,19.997
		c0.574,2.084,6.469,1.251,5.999-1c1.053,0.737-0.687,3.812,3,4c-0.515,3.484-6.533,1.466-9.999,1.999c0-3.666,0-7.332,0-10.998
		c-4.146,7.834-14.661,11.984-21.998,3.999c0.073-11.508,2.39-14.91,2-22.997c4.124-0.124,6.261,1.738,10.999,1
		c-0.086-1.419-0.165-2.831,1-2.999c-1.431-2.903-6.187-2.48-7.999-5c0.102-1.122-1.454-1.557,0-2c3.469,2.863,7.059,5.606,13.998,5
		c20.254-2.743,29.494-16.5,38.996-29.997c-2.57-0.097-1.431-3.903-4-4c0-0.333,0-0.667,0-1c0.212-1.208,1.109-0.615,2,0
		c5.744,5.276,0.557,10.909-3,14.998C64.422,48.094,60.901,52.572,56.323,55.993z M18.328,73.991c-0.728-2.729,1.987-2.013,2-4
		C17.447,66.338,14.114,73.396,18.328,73.991z M31.326,75.99c0-1.333,0-2.666,0-3.999c-1.892-1.774-6.604-0.729-9.999-1
		c-3.214,5.118-6.832,9.832-5.999,18.997c2.525,1.475,4.467,3.533,7.999,4c6.623,1.756,11.598-6.252,10.999-14.998
		C32.886,78.431,31.886,77.431,31.326,75.99z M34.326,77.99c1.333,0,2.667,0,4,0c1.151-1.182,1.132-3.534,1-5.999
		C35.268,68.987,31.415,74.334,34.326,77.99z"/>
	<path fill-rule="evenodd" clip-rule="evenodd" fill="#9E8E91" d="M16.328,99.987c2.28,1.387,0.373,6.96,1,9.999
		C15.048,108.6,16.955,103.026,16.328,99.987z"/>
	<path fill-rule="evenodd" clip-rule="evenodd" fill="#9E8E91" d="M15.328,118.985c-1.333,0-2.667,0-4,0
		c-0.239-4.238,0.919-7.08,2-9.999C15.517,110.798,13.499,116.815,15.328,118.985z"/>
	<path fill-rule="evenodd" clip-rule="evenodd" fill="#9E8E91" d="M33.326,121.984c-9.133,1.24-3.607-11.132-3-14.998
		C32.285,111.027,31.674,117.638,33.326,121.984z"/>
</g>
</svg>
